# xmcd
#
# Track frame offsets:
#	150
#	20026
#	36191
#	58584
#	87382
#	110914
#	134018
#	153226
#	175309
#	198633
#	216538
#	237343
#	256888
#	278458
#
# Disc length: 3932 seconds
#
# Revision: 1
# Processed by: cddbd v1.4PL0 Copyright (c) Steve Scherf et al.
# Submitted via: audiograbber 1.80
#
DISCID=d40f5a0e
DTITLE=All Saints - Singles Collection 2000
DYEAR=1900
DGENRE=
TTITLE0=Pure Shoes
TTITLE1=Bootie call
TTITLE2=Under the bridge
TTITLE3=Never ever
TTITLE4=I know where is at
TTITLE5=War of nerves
TTITLE6=Lady Marmelade
TTITLE7=Heaven
TTITLE8=Never ever (Nice Hat Mix)
TTITLE9=Never ever (All Star Mix)
TTITLE10=Bootie call (Krazee Alley Alley Mix)
TTITLE11=I know where is at (Groovy Mix)
TTITLE12=Under the bridge (Ignirants Remix)
TTITLE13=Lady Marmelade (Timberland Remix)
EXTD=
EXTT0=
EXTT1=
EXTT2=
EXTT3=
EXTT4=
EXTT5=
EXTT6=
EXTT7=
EXTT8=
EXTT9=
EXTT10=
EXTT11=
EXTT12=
EXTT13=
PLAYORDER=
